<?xml version="1.0" encoding="UTF-8"?>
<svg version="1.1" xmlns="http://www.w3.org/2000/svg" width="24" height="24">
<path d="M0 0 C1.640625 0.82421875 1.640625 0.82421875 2.29858398 2.63574219 C2.41145752 3.35793945 2.52433105 4.08013672 2.640625 4.82421875 C0.72127716 7.11438341 -1.12285358 9.05703573 -3.296875 11.07421875 C-4.1621582 11.90566406 -4.1621582 11.90566406 -5.04492188 12.75390625 C-6.47215229 14.1221602 -7.91439558 15.47472255 -9.359375 16.82421875 C-10.679375 16.16421875 -11.999375 15.50421875 -13.359375 14.82421875 C-13.359375 10.3810637 -12.63810789 9.56776557 -9.64453125 6.51367188 C-9.13792969 6.01802734 -8.63132812 5.52238281 -8.109375 5.01171875 C-7.61824219 4.49673828 -7.12710937 3.98175781 -6.62109375 3.45117188 C-2.93641081 -0.21877233 -2.93641081 -0.21877233 0 0 Z " fill="#000000" transform="translate(19.359375,2.17578125)"/>
<path d="M0 0 C1.98 0.99 1.98 0.99 4 2 C4 2.66 4 3.32 4 4 C2.68 4 1.36 4 0 4 C0 2.68 0 1.36 0 0 Z " fill="#000000" transform="translate(3,17)"/>
</svg>
